<svg xmlns="http://www.w3.org/2000/svg" viewBox="0 0 200 200" fill="none">
  <!-- Outer ribbon circle -->
  <circle cx="100" cy="95" r="70" stroke="#1B3A5C" stroke-width="6" fill="none"/>
  <circle cx="100" cy="95" r="60" stroke="#2563EB" stroke-width="3" fill="none"/>
  
  <!-- Certificate/document icon -->
  <rect x="75" y="65" width="50" height="60" rx="4" fill="white" stroke="#1B3A5C" stroke-width="2.5"/>
  <line x1="85" y1="80" x2="115" y2="80" stroke="#CBD5E1" stroke-width="2" stroke-linecap="round"/>
  <line x1="85" y1="88" x2="110" y2="88" stroke="#CBD5E1" stroke-width="2" stroke-linecap="round"/>
  <line x1="85" y1="96" x2="105" y2="96" stroke="#CBD5E1" stroke-width="2" stroke-linecap="round"/>
  
  <!-- Checkmark circle (green) -->
  <circle cx="120" cy="70" r="16" fill="#16A34A"/>
  <path d="M112 70 L118 76 L128 64" stroke="white" stroke-width="3" stroke-linecap="round" stroke-linejoin="round" fill="none"/>
  
  <!-- Star accent -->
  <path d="M135 50 L137 55 L142 55 L138 58 L140 63 L135 60 L130 63 L132 58 L128 55 L133 55 Z" fill="#16A34A"/>
  
  <!-- Ribbon tails -->
  <path d="M60 145 L80 130 L100 155 L80 165 Z" fill="#1B3A5C"/>
  <path d="M140 145 L120 130 L100 155 L120 165 Z" fill="#2563EB"/>
  
  <!-- Ribbon overlay swoosh -->
  <path d="M55 100 Q70 85 85 95" stroke="#16A34A" stroke-width="4" fill="none" stroke-linecap="round"/>
  <path d="M145 100 Q130 85 115 95" stroke="#16A34A" stroke-width="4" fill="none" stroke-linecap="round"/>
</svg>
